<svg width="31" height="24" viewBox="0 0 31 24" fill="none" xmlns="http://www.w3.org/2000/svg">
<path d="M20.75 0C18.8375 0 17.1875 1.0287 16.175 2.58645C17.8625 4.17359 18.875 6.34855 18.875 8.84683C18.875 9.69918 18.7625 10.4634 18.5375 11.2275C19.25 11.5508 19.9625 11.786 20.75 11.786C23.8625 11.786 26.375 9.14074 26.375 5.90768C26.375 2.67462 23.8625 0.0293915 20.75 0.0293915V0ZM9.5 2.93915C6.3875 2.93915 3.875 5.58438 3.875 8.81744C3.875 12.0505 6.3875 14.6957 9.5 14.6957C12.6125 14.6957 15.125 12.0505 15.125 8.81744C15.125 5.58438 12.6125 2.93915 9.5 2.93915ZM27.3125 12.2268C25.7 13.7258 23.4875 14.6369 20.975 14.6957C21.9875 15.8126 22.625 17.1646 22.625 18.6342V20.574H30.125V15.695C30.125 14.1667 28.9625 12.8441 27.3125 12.1975V12.2268ZM2.9375 15.166C1.2875 15.8126 0.125 17.1352 0.125 18.6636V23.5426H18.875V18.6636C18.875 17.1352 17.7125 15.8126 16.0625 15.166C14.375 16.7237 12.0875 17.6349 9.5 17.6349C6.9125 17.6349 4.625 16.6943 2.9375 15.166Z" fill="#556080"/>
</svg>
